<svg xmlns="http://www.w3.org/2000/svg" viewBox="0 0 523.5 110.94"><defs><style>.cls-1,.cls-2{fill:#fff;}.cls-2{font-size:26px;font-family:Gotham-BookItalic, Gotham Book;font-style:italic;}.cls-3{fill:#d9d9d8;}</style></defs><g id="Layer_2" data-name="Layer 2"><g id="Layer_1-2" data-name="Layer 1"><path class="cls-1" d="M256.42,0V.11L252.23,14.3l-.23.11H217.28c-3,10.11-4.65,15.27-4.65,15.38h18.63c.24,0,.24,0,.24.1-2.57,8.82-4,13.55-4.2,14.31H208.2c0,.32-2.8,10.21-8.85,29.67l-.24.11H168.59l-.23-.11C180,35.81,187,12.37,189.56,3.44,190.26,1.18,190.73,0,191,0Z"/><path class="cls-1" d="M292.3.54h.23c-.23,1.07-6.29,20.86-17.94,59.57h17.48L309.54,1.83A6.17,6.17,0,0,1,310,.54h30.75c-1.63,5.48-8.16,27.53-19.8,66,0,1-.47,1.4-.94,1.4-.93.43-6.29,2.69-15.84,6.56H254.56l-13.05-7,18.64-62c.93-3.33,1.4-4.94,1.63-4.94Z"/><path class="cls-1" d="M431.15,7.2v.11L414.61,62.69a44,44,0,0,1-1.63,5L396.44,74.3h-64.3c-.24,0-.24-.1-.24-.1,12.35-41.62,18.88-62.91,19.34-64a73.89,73.89,0,0,1,3-9.9h64.07C426,4.41,430.45,6.67,431.15,7.2ZM367.08,60H378.5c4.19-1.72,6.52-2.69,6.75-2.9.24-.54,4.2-13.76,12.12-39.89a45,45,0,0,0-4.89-2.48H380.6Z"/><path class="cls-1" d="M507.79.54s4.43,2.36,13.05,6.88L502.9,66.67a1.41,1.41,0,0,1-1.4,1.51c-3.72,1.61-9.08,3.65-15.61,6.34H436.5c-.69-.22-5.12-2.58-13-7,11.65-38.93,17.7-58.93,17.94-60,0-.33.46-.54,1.39-.76.7-.32,5.83-2.36,15.38-6.23ZM456.54,60.11h17.24a8.41,8.41,0,0,0,.7-2.58c.23-.32,4.66-14.63,13-42.69H470.05Z"/><text class="cls-2" transform="translate(168.36 105.74)">YOUR FITNESS GUIDE</text><path class="cls-3" d="M104.86,105.7c-1.17-2-1.88-3.87-3.19-5.19-3.76-3.8-3.57-8.23-2-12.62a37.56,37.56,0,0,0,2.47-15.81c-.1-1.15-.29-2.29-.44-3.44l.57-.23,3.17,7.17c4.14.53,6.65-2.33,8.86-5,4-4.82,7.47-10,11.16-15,2.13-2.9,4.26-5.79,6.36-8.7.75-1,1.54-1.41,2.76-.66.85.53,1.91.72,2.78,1.22,4.28,2.48,8.79,2.15,13.4,1.32,1.93-.35,2.26-1.23,1.67-2.95-1.52-4.49-3.06-9-4.42-13.52-.72-2.38-.86-4.94-1.64-7.28a48.38,48.38,0,0,0-3.86-9.16,3.28,3.28,0,0,1,.28-4.34c2.6-3.2,6.14-4.74,10-5.52a12.9,12.9,0,0,0,8.95-6C157,2,152.51,1.48,148,.86c-8.33-1.16-15.73,3.43-16.95,11-.41,2.49.23,5.16.39,7.62-3.22-.68-4.75-3.16-4.92-8.83a43.73,43.73,0,0,0-21.63,1.3c-10.6,3.33-19,9.93-26.48,17.88a31.84,31.84,0,0,1-20,10.28A2.72,2.72,0,0,1,57.27,40c5.32-2.29,10.21-5.14,14.16-10.26-2,.49-3.54,1-5.08,1.2a48.72,48.72,0,0,1-8.81.77A21.67,21.67,0,0,0,41,37.35c-1,.88-2.65,1.1-4,1.36-7.19,1.29-12.51,5-15.58,11.71-2,4.33-3.93,8.66-6.07,12.9A31,31,0,0,1,11.58,69a3.85,3.85,0,0,1-4.91.92C4.84,69,3.75,67.68,4.11,65.63a27.72,27.72,0,0,1,1.43-5.38c1.35-3.38,2.4-6.64,1-10.37-.59-1.63-1.27-2-2.67-1.54-1.15.4-2.23,1-3.91,1.78,1.74.53,3,.86,4.16,1.26,2.19.73,2.81,2,2,4.13C5.46,57.18,4.49,58.73,4,60.43A48.86,48.86,0,0,0,2.3,67.18C1.53,71.75,6.79,74,9.84,72.6a12.47,12.47,0,0,0,4.91-4c3.23-4.78,6.05-9.83,9.09-14.74,1-1.59,2.1-3.1,3.18-4.63,2-2.8,4.84-3.7,8.39-3.89-1.56,5.52-3.06,10.85-4.59,16.17A4.39,4.39,0,0,1,30,63.15c-4.93,5.48-6.57,12.66-9.87,19-1.26,2.41-2.89,4.65-4,7.13a63.28,63.28,0,0,0-2.52,7.91c-.07.25.43.91.76,1,2,.43,4.11.82,6.19,1.09,1.41.19,2.21-.48,1.57-1.93-1.92-4.35,0-7.95,2-11.66a32.56,32.56,0,0,1,12.12-13c5.05-3.06,9.65-6.87,14.39-10.41a11,11,0,0,1,7.79-1.84,38.24,38.24,0,0,1,19.44,6.67c.45.31.91.6,1.75,1.14A45.08,45.08,0,0,1,82.74,50c.23,4.38.35,8.3.68,12.2a37.13,37.13,0,0,0,4.43,14.14c3.54,6.83,6.92,13.83,5.53,22-.32,1.89.31,4,.9,5.93.2.65,1.59,1.26,2.48,1.32C99.24,105.82,101.74,105.7,104.86,105.7Z"/><path class="cls-3" d="M72.26,66.39c-6-1.58-11.28-2.55-16.67-.53-1.51.57-2.46,1.31-2.11,3.26A7.17,7.17,0,0,1,51,75.64c-2.38,2.26-2.71,4.67-1.36,7.57,2,4.24,3.79,8.54,5.68,12.8.09.22.35.42.33.61-.29,3.79,2.54,3.84,5.06,4.2,1.37.19,2.76.26,4.34.4a6.75,6.75,0,0,0-2.74-5.79c-3.89-2.92-5.33-7.06-5.19-11.66a7,7,0,0,1,2.32-4.27C62,77,65.05,75.07,67.62,72.58,69.34,70.92,70.56,68.71,72.26,66.39Z"/><path class="cls-3" d="M122,66.09l-7.72,11.12c4.16,2.49,5.71,5.72,3.75,9.44a19.42,19.42,0,0,1-4.64,5.65c-3.21,2.69-4.37,6.22-2.7,10.6,4.86-2.43,9.92-4.22,11.33-10.61.87-4,2.67-7.73,4.24-11.51C128.11,76.19,126.11,69.29,122,66.09Z"/><path class="cls-3" d="M143.44,13.71l5,7.1c2.68-.9,5.45-1.89,8.25-2.75,4.35-1.33,6-4.75,7.32-9.28a15.57,15.57,0,0,1-13.39,3.36A8.81,8.81,0,0,0,143.44,13.71Z"/></g></g></svg>